<?xml version="1.0" encoding="utf-8"?>
<svg width="101.369995" height="92" viewBox="0 0 101.369995 92" fill="none" xmlns="http://www.w3.org/2000/svg">
  <path fill-rule="evenodd" clip-rule="evenodd" d="M36.1316 36.4316V59.1643C36.1316 68.9233 28.0372 76.8454 18.0658 76.8454C8.09442 76.8454 0 68.9233 0 59.1643V18.7507C0 8.99171 8.09442 1.06973 18.0658 1.06973H59.3591C69.3305 1.06973 77.4249 8.99171 77.4249 18.7507C77.4249 28.5097 69.3305 36.4316 59.3591 36.4316H36.1316Z" fill="#034AFD" />
  <path opacity="0.85" fill-rule="evenodd" clip-rule="evenodd" d="M51.616 51.5863V74.319C51.616 84.078 43.5216 92 33.5502 92C23.5789 92 15.4844 84.078 15.4844 74.319V33.9053C15.4844 24.1464 23.5789 16.2243 33.5502 16.2243H74.8435C84.8149 16.2243 92.9093 24.1464 92.9093 33.9053C92.9093 43.6643 84.8149 51.5863 74.8435 51.5863H51.616Z" fill="#22E0A1" />
  <path d="M110.028 35.6828V6.19563C110.028 3.33254 112.405 1.00629 115.33 1.00629H129.069C133.706 1.00629 137.271 2.10549 139.739 4.30393C142.207 6.50237 143.448 9.45495 143.448 13.1488C143.448 16.8427 142.194 19.7953 139.687 21.9937C137.179 24.1922 133.64 25.2914 129.069 25.2914H120.593V35.6828C120.593 38.5331 118.23 40.8466 115.317 40.8466C112.392 40.8466 110.028 38.5331 110.028 35.6828ZM120.58 17.4562H127.659C129.722 17.4562 131.224 17.0984 132.178 16.3698C133.131 15.6412 133.614 14.6059 133.614 13.2639C133.614 11.8451 133.144 10.7714 132.217 10.0429C131.276 9.31432 129.761 8.95646 127.672 8.95646H120.593V17.4562H120.58Z" fill="white" />
  <path d="M148.503 35.7084V6.15728C148.503 3.31976 150.853 1.00629 153.766 1.00629H172.924C175.197 1.00629 177.038 2.80849 177.038 5.03249C177.038 7.2565 175.197 9.0587 172.924 9.0587H158.781V16.5615H165.402C167.674 16.5615 169.516 18.3637 169.516 20.5877C169.516 22.8117 167.674 24.614 165.402 24.614H158.781V32.7814H172.924C175.197 32.7814 177.038 34.5836 177.038 36.8076C177.038 39.0316 175.197 40.8339 172.924 40.8339H153.753C150.853 40.8466 148.503 38.5459 148.503 35.7084Z" fill="white" />
  <path d="M182.418 35.6317V6.22118C182.418 3.34531 184.808 1.00629 187.747 1.00629H198.756C203.209 1.00629 207.036 1.79873 210.21 3.38365C213.396 4.96857 215.838 7.2437 217.536 10.209C219.234 13.1744 220.096 16.7277 220.096 20.8689C220.096 25.0485 219.247 28.6274 217.562 31.6183C215.878 34.6092 213.448 36.8843 210.262 38.4693C207.075 40.0542 203.236 40.8466 198.743 40.8466H187.734C184.808 40.8466 182.418 38.5204 182.418 35.6317ZM192.984 32.4619H198.038C201.93 32.4619 204.842 31.5032 206.775 29.586C208.708 27.6688 209.661 24.7673 209.661 20.8817C209.661 13.2383 205.782 9.40379 198.038 9.40379H192.984V32.4619Z" fill="white" />
  <path d="M226.286 35.6828V6.17004C226.286 3.31973 228.65 1.00629 231.563 1.00629C234.475 1.00629 236.839 3.31973 236.839 6.17004V35.6828C236.839 38.5331 234.475 40.8466 231.563 40.8466C228.65 40.8466 226.286 38.5331 226.286 35.6828Z" fill="white" />
  <path d="M244.035 35.1844V6.66854C244.035 3.53704 246.621 1.00629 249.821 1.00629H260.373C264.827 1.00629 268.653 1.79873 271.827 3.38365C275.013 4.96857 277.456 7.2437 279.153 10.209C280.851 13.1744 281.713 16.7277 281.713 20.8689C281.713 25.0485 280.877 28.6274 279.179 31.6183C277.495 34.6092 275.066 36.8843 271.879 38.4693C268.692 40.0542 264.853 40.8466 260.36 40.8466H249.808C246.634 40.8466 244.035 38.3159 244.035 35.1844ZM254.601 32.4619H259.655C263.547 32.4619 266.459 31.5032 268.392 29.586C270.325 27.6688 271.278 24.7673 271.278 20.8817C271.278 13.2383 267.399 9.40379 259.655 9.40379H254.601V32.4619Z" fill="white" />
  <path d="M306.944 41.3583C302.817 41.3583 299.252 40.5147 296.248 38.8403C293.231 37.1659 290.907 34.7885 289.287 31.7337C287.655 28.6789 286.845 25.0617 286.845 20.8821C286.845 16.7409 287.668 13.1364 289.313 10.0816C290.959 7.0268 293.283 4.66223 296.274 3.00061C299.265 1.339 302.83 0.508179 306.944 0.508179C311.058 0.508179 314.61 1.339 317.588 3.00061C320.565 4.66223 322.864 7.0268 324.496 10.0816C326.129 13.1364 326.939 16.7409 326.939 20.8821C326.939 25.0617 326.129 28.6789 324.496 31.7337C322.864 34.7885 320.565 37.1659 317.588 38.8403C314.61 40.5147 311.071 41.3583 306.944 41.3583ZM306.944 33.357C309.869 33.357 312.194 32.3089 313.931 30.2255C315.668 28.1421 316.543 25.0234 316.543 20.8821C316.543 16.7792 315.668 13.686 313.931 11.6154C312.194 9.5448 309.856 8.50949 306.944 8.50949C304.019 8.50949 301.694 9.53203 299.983 11.5899C298.259 13.6477 297.397 16.7409 297.397 20.8821C297.397 25.0617 298.259 28.1804 299.983 30.251C301.707 32.3217 304.032 33.357 306.944 33.357Z" fill="white" />
  <path d="M110.007 86.2466V56.7849C110.007 53.8834 112.41 51.5444 115.362 51.5444H129.049C133.685 51.5444 137.25 52.6436 139.718 54.8421C142.187 57.0405 143.427 59.9931 143.427 63.687C143.427 67.3809 142.174 70.3334 139.666 72.5319C137.159 74.7303 133.619 75.8295 129.049 75.8295H120.573V86.2466C120.573 89.0841 118.222 91.3976 115.31 91.3976H115.27C112.371 91.3848 110.007 89.0841 110.007 86.2466ZM120.573 67.9944H127.651C129.715 67.9944 131.216 67.6365 132.17 66.9079C133.123 66.1794 133.606 65.1441 133.606 63.802C133.606 62.3833 133.136 61.3096 132.209 60.581C131.269 59.8525 129.754 59.4946 127.664 59.4946H120.586V67.9944H120.573Z" fill="white" />
  <path d="M146.797 91.3848H146.614C143.206 91.3848 140.946 87.9337 142.37 84.9045L156.788 54.203C157.545 52.5797 159.204 51.5444 161.032 51.5444H163.357C165.185 51.5444 166.831 52.5797 167.601 54.203L182.059 84.9045C183.482 87.9337 181.223 91.3848 177.814 91.3848C175.934 91.3848 174.236 90.2855 173.518 88.5856L161.189 59.9803H163.488L151.107 88.5856C150.362 90.2983 148.678 91.3848 146.797 91.3848ZM147.986 83.1662L152.086 75.2799H171.689L175.738 83.1662H147.986Z" fill="white" />
  <path d="M206.572 91.8964C202.184 91.8964 198.41 91.0783 195.223 89.4295C192.037 87.7935 189.581 85.4417 187.87 82.3741C186.147 79.3192 185.285 75.6637 185.285 71.4074C185.285 67.2661 186.147 63.6618 187.87 60.6069C189.594 57.5521 192.024 55.1875 195.145 53.5259C198.266 51.8643 201.949 51.0335 206.18 51.0335C209.067 51.0335 211.783 51.4042 214.356 52.1583C215.583 52.5162 216.694 52.938 217.699 53.4109C219.436 54.2417 220.154 56.2868 219.384 58.0123L218.901 59.0859C218.091 60.9137 215.897 61.7189 214.055 60.8881C213.337 60.5686 212.645 60.2874 211.966 60.0701C210.281 59.5333 208.466 59.2649 206.52 59.2649C202.968 59.2649 200.317 60.2618 198.566 62.2557C196.83 64.2497 195.955 67.3045 195.955 71.4074C195.955 75.6637 196.856 78.808 198.684 80.8658C200.499 82.9237 203.294 83.9462 207.081 83.9462C208.283 83.9462 209.511 83.8567 210.79 83.665C212.07 83.4733 213.35 83.1793 214.669 82.7703L212.371 85.7867V76.2133C212.371 76.0855 212.266 75.9832 212.136 75.9832H209.04C207.029 75.9832 205.41 74.3983 205.41 72.43C205.41 70.4616 207.029 68.8767 209.04 68.8767H218.235C220.246 68.8767 221.865 70.4616 221.865 72.43V85.3394C221.865 87.6018 220.363 89.6085 218.143 90.2731C217.843 90.3626 217.529 90.4521 217.229 90.5287C215.557 90.9761 213.833 91.3084 212.031 91.5385C210.216 91.7813 208.401 91.8964 206.572 91.8964Z" fill="white" />
  <path d="M247.566 91.8964C243.44 91.8964 239.874 91.0528 236.87 89.3784C233.854 87.704 231.529 85.3267 229.91 82.2718C228.277 79.217 227.467 75.5998 227.467 71.4202C227.467 67.279 228.29 63.6746 229.936 60.6198C231.581 57.5649 233.906 55.2004 236.897 53.5388C239.887 51.8771 243.453 51.0463 247.566 51.0463C251.68 51.0463 255.233 51.8771 258.21 53.5388C261.188 55.2004 263.486 57.5649 265.119 60.6198C266.751 63.6746 267.561 67.279 267.561 71.4202C267.561 75.5998 266.751 79.217 265.119 82.2718C263.486 85.3267 261.188 87.704 258.21 89.3784C255.233 91.0528 251.693 91.8964 247.566 91.8964ZM247.566 83.8951C250.492 83.8951 252.817 82.847 254.553 80.7636C256.29 78.6802 257.165 75.5615 257.165 71.4202C257.165 67.3173 256.29 64.2242 254.553 62.1536C252.817 60.0829 250.479 59.0476 247.566 59.0476C244.641 59.0476 242.316 60.0702 240.606 62.128C238.882 64.1859 238.02 67.279 238.02 71.4202C238.02 75.5998 238.882 78.7185 240.606 80.7892C242.329 82.8598 244.654 83.8951 247.566 83.8951Z" fill="white" />
</svg>